# xmcd
#
# Track frame offsets: 
#        150
#        27711
#        58947
#        83820
#        110364
#        125115
#        142308
#        167818
#        190698
#        212039
#        234324
#        259810
#
# Disc length: 3743 seconds
#
# Revision: 0
# Processed by: cddbd v1.5.2PL0 Copyright (c) Steve Scherf et al.
# Submitted via: ExactAudioCopy v1.0b3
#
DISCID=b60e9d0c
DTITLE=Khanh Ly - Tam Mat Ngon Song Dao
DYEAR=1981
DGENRE=
TTITLE0=Toi co bam lay dat nuoc toi
TTITLE1=Kinh cau cho tuoi tre
TTITLE2=Que huong toi
TTITLE3=Song mot ngay
TTITLE4=Chia ao nguoi yeu
TTITLE5=Bai tinh ca nho
TTITLE6=Yeu em
TTITLE7=Toi da song
TTITLE8=Co he chi vang mot chut reu rong
TTITLE9=Loi nguyen trong tu
TTITLE10=Can khon oi xin rot ruou dum ngay
TTITLE11=Sai Gon chi vui khi cac anh ve
EXTD=
EXTT0=
EXTT1=
EXTT2=
EXTT3=
EXTT4=
EXTT5=
EXTT6=
EXTT7=
EXTT8=
EXTT9=
EXTT10=
EXTT11=
PLAYORDER=
